<svg width="643" height="238" viewBox="0 0 643 238" fill="none" xmlns="http://www.w3.org/2000/svg">
<path d="M5 38.5638L241.624 112.616" stroke="#AE599C" stroke-width="9" stroke-linecap="round"/>
<path d="M69.3257 85.0751L168.328 134.969" stroke="#AE599C" stroke-width="9" stroke-linecap="round"/>
<path d="M168.328 134.969L241.744 112.668" stroke="#AE599C" stroke-width="9" stroke-linecap="round"/>
<path d="M168.328 134.969L226.512 204.228" stroke="#AE599C" stroke-width="9" stroke-linecap="round"/>
<path d="M172.166 188.742L226.512 204.228" stroke="#AE599C" stroke-width="9" stroke-linecap="round"/>
<path d="M148.724 218.072L154.351 153.061" stroke="#AE599C" stroke-width="9" stroke-linecap="round"/>
<path d="M5 38.5638L148.724 218.072" stroke="#AE599C" stroke-width="9" stroke-linecap="round"/>
<path d="M271.845 145.744C271.845 138.405 273.808 130.768 277.733 122.832C281.658 114.811 286.65 107.6 292.709 101.2C298.768 94.8 305.253 88.9547 312.165 83.664C319.077 78.3733 325.69 74.2773 332.005 71.376C338.405 68.4747 343.61 67.024 347.621 67.024C349.157 67.024 350.821 67.6213 352.613 68.816C354.49 70.0107 355.429 71.4187 355.429 73.04C355.429 74.576 353.85 77.52 350.693 81.872C347.536 86.1387 343.696 91.0027 339.173 96.464C334.736 101.925 330.256 107.557 325.733 113.36C321.21 119.163 317.37 124.88 314.213 130.512C311.056 136.144 309.477 140.709 309.477 144.208C309.477 145.573 310.16 146.256 311.525 146.256C314.085 146.256 318.01 143.696 323.301 138.576C328.592 133.371 334.437 127.099 340.837 119.76C347.322 112.336 354.021 104.955 360.933 97.616C367.93 90.192 375.098 83.92 382.437 78.8C389.861 73.5947 396.389 70.992 402.021 70.992C403.642 70.992 405.349 71.4613 407.141 72.4C408.933 73.2533 409.829 74.2347 409.829 75.344C409.829 76.368 409.36 77.1787 408.421 77.776C407.482 78.3733 405.861 79.2267 403.557 80.336C401.338 81.4453 398.65 82.896 395.493 84.688C392.336 86.3947 388.197 89.1253 383.077 92.88C377.957 96.5493 372.41 100.901 366.437 105.936C352.186 117.968 335.93 134.267 317.669 154.832C310.33 163.024 300.432 167.12 287.973 167.12H287.845C284.09 167.12 280.506 164.773 277.093 160.08C273.765 155.301 272.016 150.523 271.845 145.744ZM332.578 163.408C331.298 162.213 330.658 160.677 330.658 158.8C330.658 152.827 334.199 146.043 341.282 138.448C348.45 130.853 355.106 126.501 361.25 125.392C365.09 125.392 367.01 127.653 367.01 132.176C367.01 133.627 365.09 137.04 361.25 142.416C357.41 147.792 353.015 152.955 348.066 157.904C343.117 162.853 339.618 165.328 337.57 165.328C335.522 165.328 333.858 164.688 332.578 163.408ZM369.314 121.296C373.41 120.869 376.781 119.12 379.426 116.048C382.071 112.891 383.394 110.203 383.394 107.984C383.394 104.485 381.645 102.736 378.146 102.736C375.757 102.736 372.941 103.803 369.698 105.936C366.455 108.069 364.621 111.184 364.194 115.28L364.322 116.688C364.493 117.712 365.005 118.736 365.858 119.76C366.711 120.784 367.863 121.296 369.314 121.296ZM397.957 156.88C397.957 157.307 398.256 157.605 398.853 157.776C399.45 157.776 401.498 156.581 404.997 154.192C408.581 151.717 410.586 150.352 411.013 150.096C411.525 149.84 411.994 149.712 412.421 149.712C413.616 149.712 414.213 150.309 414.213 151.504C414.213 152.613 411.184 155.131 405.125 159.056C399.152 162.981 394.928 164.944 392.453 164.944C391.429 164.944 390.32 164.517 389.125 163.664C388.016 162.811 387.461 161.829 387.461 160.72C387.461 159.525 387.76 158.245 388.357 156.88C388.954 155.515 389.253 154.619 389.253 154.192C389.253 153.68 389.125 153.424 388.869 153.424C388.613 153.424 388.357 153.509 388.101 153.68C379.824 159.909 373.722 163.024 369.797 163.024C367.578 163.024 365.829 162.213 364.549 160.592C363.269 158.971 362.501 157.349 362.245 155.728L361.989 153.296C361.989 150.48 363.056 147.237 365.189 143.568C367.408 139.813 370.266 136.272 373.765 132.944C377.349 129.531 381.701 126.672 386.821 124.368C392.026 122.064 397.317 120.912 402.693 120.912C405.594 120.912 408.282 121.68 410.757 123.216C413.317 124.752 414.597 126.544 414.597 128.592C414.597 130.64 412.592 131.877 408.581 132.304C405.594 132.987 400.645 135.461 393.733 139.728C386.906 143.909 383.493 147.109 383.493 149.328C383.493 150.267 383.962 150.736 384.901 150.736C386.608 150.736 390.618 148.304 396.933 143.44C403.333 138.576 407.173 136.144 408.453 136.144C409.733 136.144 410.373 136.912 410.373 138.448C410.373 139.557 409.946 140.624 409.093 141.648C408.325 142.587 407.77 143.269 407.429 143.696C406.746 144.549 404.997 146.469 402.181 149.456C399.365 152.357 397.957 154.832 397.957 156.88ZM445.745 120.144C447.196 120.144 448.476 120.955 449.585 122.576C450.694 124.197 451.249 125.477 451.249 126.416C451.249 127.355 450.353 129.701 448.561 133.456C446.769 137.125 444.38 141.605 441.393 146.896C438.492 152.187 434.993 157.819 430.897 163.792C426.886 169.765 422.748 175.269 418.481 180.304C414.214 185.424 409.692 189.648 404.913 192.976C400.134 196.304 395.74 197.968 391.729 197.968C389.852 197.968 388.06 197.755 386.353 197.328C384.646 196.987 382.94 196.048 381.233 194.512C379.526 192.976 378.673 191.056 378.673 188.752C378.673 186.448 379.526 183.504 381.233 179.92C382.94 176.421 385.244 173.392 388.145 170.832C388.998 170.149 389.766 169.808 390.449 169.808C391.132 169.808 391.686 169.979 392.113 170.32C392.54 170.661 392.753 171.045 392.753 171.472C392.753 171.984 391.644 174.203 389.425 178.128C387.121 182.053 385.969 184.613 385.969 185.808C385.969 186.064 386.054 186.192 386.225 186.192C387.59 186.192 395.1 178.128 408.753 162C422.492 145.957 429.361 137.125 429.361 135.504C429.361 134.821 429.02 134.48 428.337 134.48C427.91 134.48 426.972 134.821 425.521 135.504C424.07 136.187 423.046 136.528 422.449 136.528C421.852 136.528 421.212 136.272 420.529 135.76C419.846 135.248 419.505 134.651 419.505 133.968C419.505 132.944 421.681 131.28 426.033 128.976C430.47 126.672 434.865 124.624 439.217 122.832L445.745 120.144ZM463.409 95.568C466.652 95.568 468.273 97.4027 468.273 101.072C468.273 104.656 466.609 108.069 463.281 111.312C460.038 114.555 457.094 116.176 454.449 116.176C451.804 116.176 450.054 115.493 449.201 114.128C448.348 112.677 447.921 111.099 447.921 109.392C447.921 107.6 449.457 104.869 452.529 101.2C455.601 97.4453 459.228 95.568 463.409 95.568ZM470.812 137.168L477.084 136.528C479.985 136.528 481.436 137.979 481.436 140.88C481.436 142.416 480.028 144.123 477.212 146C474.396 147.877 471.537 149.627 468.636 151.248C465.82 152.784 464.412 153.979 464.412 154.832C464.412 155.429 465.095 155.813 466.46 155.984C469.447 155.984 475.121 153.595 483.484 148.816C491.847 144.037 496.327 141.648 496.924 141.648C498.119 141.648 498.716 142.245 498.716 143.44C498.631 144.293 495.9 146.427 490.524 149.84C485.233 153.168 479.004 156.411 471.836 159.568C464.753 162.64 459.335 164.176 455.58 164.176C449.692 164.176 446.748 161.061 446.748 154.832C446.748 153.04 447.943 151.077 450.332 148.944C452.807 146.811 455.239 144.976 457.628 143.44C460.103 141.904 461.34 140.965 461.34 140.624C461.34 140.197 460.743 139.728 459.548 139.216C455.964 137.68 454.172 135.632 454.172 133.072C454.172 128.293 458.14 123.771 466.076 119.504C474.097 115.152 481.521 112.976 488.348 112.976C492.103 112.976 495.217 113.701 497.692 115.152C500.167 116.517 501.404 118.651 501.404 121.552C501.404 124.368 499.399 127.013 495.388 129.488C491.463 131.963 488.647 133.2 486.94 133.2C486.257 133.2 485.617 133.029 485.02 132.688C484.508 132.347 484.252 131.963 484.252 131.536C484.252 131.109 485.404 130.427 487.708 129.488C490.097 128.464 491.292 127.525 491.292 126.672C491.292 126.245 490.652 126.032 489.372 126.032C488.177 126.032 484.167 127.397 477.34 130.128C470.513 132.773 467.1 134.651 467.1 135.76C467.1 136.699 468.337 137.168 470.812 137.168ZM521.226 114.256C521.823 114.256 522.378 114.555 522.89 115.152C523.402 115.664 523.658 116.304 523.658 117.072C523.658 117.755 523.231 118.651 522.378 119.76C519.05 123.856 516.831 126.459 515.722 127.568C514.698 128.592 514.186 129.275 514.186 129.616C514.186 129.957 514.442 130.128 514.954 130.128C515.551 130.128 517.855 129.403 521.866 127.952C525.877 126.416 528.522 125.648 529.802 125.648C531.082 125.648 532.405 126.203 533.77 127.312C535.135 128.336 535.818 129.701 535.818 131.408C535.818 133.029 533.215 136.827 528.01 142.8C522.805 148.688 520.202 152.528 520.202 154.32C520.202 154.661 520.33 154.832 520.586 154.832C521.013 154.832 521.781 154.576 522.89 154.064C523.999 153.467 524.682 153.168 524.938 153.168C525.877 153.168 526.346 153.509 526.346 154.192C526.346 156.837 524.255 159.483 520.074 162.128C515.893 164.773 512.351 166.096 509.45 166.096C506.634 166.096 504.33 165.285 502.538 163.664C500.746 162.128 499.85 160.037 499.85 157.392C499.85 154.747 501.13 151.803 503.69 148.56C506.335 145.232 509.023 142.885 511.754 141.52C514.57 140.155 515.978 139.045 515.978 138.192C515.978 137.936 515.935 137.765 515.85 137.68C512.095 139.216 509.023 139.984 506.634 139.984C501.941 139.984 499.594 138.619 499.594 135.888C499.594 132.731 502.325 128.592 507.786 123.472C513.247 118.352 517.727 115.28 521.226 114.256ZM571.264 131.664C571.264 133.968 572.629 135.12 575.36 135.12C577.92 135.12 580.736 134.48 583.808 133.2C586.88 131.92 588.544 131.28 588.8 131.28C589.056 131.28 589.312 131.493 589.568 131.92C589.909 132.347 590.08 132.773 590.08 133.2C590.08 134.139 588.075 135.376 584.064 136.912C580.139 138.363 577.28 139.088 575.488 139.088C573.696 139.088 572.416 139.088 571.648 139.088C570.965 139.003 570.411 139.429 569.984 140.368C563.669 152.229 557.397 159.696 551.168 162.768C548.437 164.133 545.536 164.816 542.464 164.816C539.477 164.816 537.003 163.835 535.04 161.872C533.163 159.824 532.224 156.624 532.224 152.272C532.224 146.213 534.187 140.581 538.112 135.376C542.123 130.085 546.645 126.117 551.68 123.472C556.715 120.827 561.28 119.504 565.376 119.504C572.288 120.272 575.744 122.363 575.744 125.776C575.744 126.715 575.488 127.568 574.976 128.336C574.549 129.019 574.165 129.445 573.824 129.616C573.568 129.701 573.227 129.787 572.8 129.872C571.776 130.128 571.264 130.725 571.264 131.664ZM560.768 137.552C558.037 139.6 555.349 142.203 552.704 145.36C550.144 148.517 548.864 151.12 548.864 153.168C548.864 155.131 549.419 156.112 550.528 156.112C552.235 156.112 555.349 153.509 559.872 148.304C564.48 143.013 566.784 138.661 566.784 135.248C566.784 134.736 566.443 134.48 565.76 134.48C565.163 134.48 563.499 135.504 560.768 137.552ZM597.118 143.184C593.534 143.184 590.249 142.373 587.262 140.752C584.361 139.131 582.91 136.656 582.91 133.328C582.91 128.976 585.982 125.221 592.126 122.064C598.27 118.907 604.627 117.328 611.198 117.328C615.294 117.328 618.622 118.096 621.182 119.632C623.742 121.083 624.979 123.301 624.894 126.288C624.894 129.189 622.675 131.835 618.238 134.224C613.886 136.528 610.985 137.68 609.534 137.68C608.083 137.68 607.358 137.381 607.358 136.784C607.358 136.187 607.614 135.76 608.126 135.504C608.723 135.163 609.961 134.565 611.838 133.712C613.715 132.859 615.081 132.176 615.934 131.664C616.787 131.067 617.214 130.597 617.214 130.256C617.214 129.915 616.83 129.744 616.062 129.744C613.246 129.744 608.809 130.768 602.75 132.816C596.777 134.779 593.79 136.4 593.79 137.68C593.79 138.448 595.497 138.832 598.91 138.832C607.358 138.832 611.582 142.203 611.582 148.944C611.582 151.931 609.79 154.661 606.206 157.136C602.622 159.525 598.953 161.232 595.198 162.256C591.443 163.28 588.414 163.792 586.11 163.792C583.891 163.792 581.417 162.768 578.686 160.72C575.955 158.672 574.59 156.624 574.59 154.576C574.59 152.528 577.278 151.035 582.654 150.096C585.043 149.755 588.201 148.987 592.126 147.792C596.051 146.512 598.014 145.317 598.014 144.208C598.014 143.525 597.715 143.184 597.118 143.184Z" fill="#AE599C"/>
</svg>
